<svg width="81" height="81" viewBox="0 0 81 81" fill="none" xmlns="http://www.w3.org/2000/svg">
<path fill-rule="evenodd" clip-rule="evenodd" d="M63.505 0.471757C56.3993 0.4584 51.6575 8.21955 51.2435 8.99858C50.813 9.80935 42.6393 25.5919 42.6393 25.5919L22.611 25.3476C6.20189 25.4164 0.458097 35.6938 0.441406 42.7907C0.471644 55.4202 13.095 54.5971 14.816 54.6072C16.4965 54.6167 43.505 54.6072 43.505 54.6072L30.2824 80.0211L30.0423 80.3044C40.2998 82.0042 45.9541 70.1877 45.9541 70.1877H45.8724L55.6428 51.5725L65.5368 51.5302V50.56L56.1693 50.5211C56.1693 50.5211 63.4912 36.464 64.0456 35.3831C66.4166 30.7611 68.4873 30.7302 68.4873 30.7302H76.6852L77.7735 29.5156C77.7735 29.5156 58.7927 29.5581 57.9042 29.5581C57.0158 29.5581 55.9678 30.932 55.9678 30.932L45.5898 50.56C45.5898 50.56 44.9426 50.5987 43.1658 50.5987C41.3889 50.5987 42.2788 48.2935 42.2788 48.2935L53.2223 27.3695L78.9043 27.5324L80.4414 25.5104H54.2718L67.1551 0.581521C67.1551 0.581521 67.2484 0.478622 63.505 0.471757ZM36.1304 27.2632C38.6406 27.2556 41.7523 27.2916 41.7523 27.2916L35.2895 39.756C35.2895 39.756 35.3136 39.7446 33.5686 39.8304C31.4565 39.9342 27.3394 37.8301 27.3743 33.6832C27.4045 30.1876 31.7362 27.3523 33.9573 27.2916C34.5227 27.2764 35.2937 27.2663 36.1304 27.2632ZM34.4026 41.3317C34.4026 41.3317 32.2947 44.5596 32.3424 47.1213C32.4283 51.7263 35.1694 51.5725 35.1694 51.5725H45.1058L44.3354 52.9888L24.8301 52.9465C24.8301 52.9465 19.2266 52.0963 19.3 47.766C19.3835 42.8587 25.4767 41.3744 25.4767 41.3744L34.4026 41.3317Z" fill="white"/>
</svg>
